<svg width="512" height="512" viewBox="0 0 512 512" fill="none" xmlns="http://www.w3.org/2000/svg">
<g filter="url(#filter0_d_1_63)">
<rect x="50" y="50" width="412" height="412" rx="92" fill="white"/>
</g>
<path d="M376.545 203.626C360.469 187.542 339.083 178.684 316.324 178.684C293.585 178.684 272.199 187.542 256.11 203.626C240.026 219.714 231.169 241.1 231.169 263.841C231.169 267.209 233.891 269.936 237.251 269.936H395.418C398.768 269.936 401.495 267.21 401.495 263.841C401.495 241.1 392.637 219.714 376.545 203.626Z" fill="#8CC153"/>
<path d="M366.261 194.84C361.047 191.044 355.414 187.86 349.473 185.35C349.117 185.399 312.636 190.246 295.955 220.899L320.049 230.711C330.85 200.605 365.905 194.898 366.261 194.84Z" fill="#434A54"/>
<path d="M390.017 298.041C382.666 280.664 372.143 265.053 358.732 251.642C345.33 238.236 329.709 227.708 312.333 220.357C294.325 212.742 275.211 208.88 255.501 208.88C235.794 208.88 216.672 212.742 198.672 220.357C181.286 227.708 165.671 238.236 152.268 251.642C138.862 265.054 128.334 280.665 120.983 298.041C113.368 316.041 109.506 335.163 109.506 354.874C109.506 358.242 112.228 360.951 115.588 360.951H395.419C398.769 360.951 401.496 358.242 401.496 354.874C401.495 335.163 397.628 316.04 390.017 298.041Z" fill="#A0D468"/>
<path d="M307.281 218.329C294.28 213.387 280.726 210.372 266.825 209.311C258.084 213.623 189.069 251.254 194.67 360.951H255.5C247.498 281.537 294.583 230.514 307.281 218.329Z" fill="#656D78"/>
<path d="M182.502 241.577C179.143 241.577 176.42 238.855 176.42 235.495V214.96C176.42 211.601 179.143 208.878 182.502 208.878C185.862 208.878 188.584 211.601 188.584 214.96V235.495C188.584 238.855 185.862 241.577 182.502 241.577Z" fill="#A85D5D"/>
<path d="M199.709 221.047H165.295C164.271 221.045 163.263 220.786 162.365 220.292C161.467 219.798 160.709 219.086 160.159 218.222C159.61 217.355 159.29 216.365 159.226 215.342C159.162 214.318 159.357 213.295 159.793 212.368L176.999 175.869C177.491 174.825 178.269 173.943 179.244 173.325C180.218 172.707 181.348 172.38 182.502 172.38C184.859 172.38 187.002 173.739 188.004 175.869L205.211 212.368C205.647 213.295 205.842 214.318 205.779 215.342C205.715 216.365 205.394 217.355 204.845 218.222C204.296 219.086 203.537 219.798 202.639 220.292C201.741 220.786 200.734 221.045 199.709 221.047Z" fill="#8CC153"/>
<path d="M205.212 188.036L188.005 151.537C187.513 150.494 186.735 149.612 185.76 148.994C184.786 148.376 183.656 148.048 182.502 148.049C181.349 148.048 180.219 148.376 179.244 148.994C178.27 149.612 177.492 150.494 177 151.537L159.794 188.036C159.357 188.963 159.162 189.986 159.226 191.008C159.29 192.031 159.611 193.021 160.159 193.886C160.708 194.751 161.467 195.464 162.365 195.958C163.263 196.451 164.271 196.71 165.296 196.711H199.71C201.79 196.711 203.728 195.646 204.847 193.886C205.395 193.02 205.716 192.031 205.779 191.008C205.843 189.985 205.648 188.963 205.212 188.036Z" fill="#A0D468"/>
<path opacity="0.2" d="M390.017 298.041C382.666 280.664 372.143 265.053 358.732 251.642C345.33 238.236 329.709 227.708 312.333 220.357C294.325 212.742 275.211 208.88 255.501 208.88C253.464 208.88 251.437 208.924 249.419 209.004C266.977 209.717 284.015 213.526 300.162 220.357C317.555 227.708 333.167 238.236 346.569 251.642C359.971 265.054 370.504 280.665 377.855 298.041C385.474 316.041 389.323 335.163 389.323 354.874C389.324 355.672 389.168 356.463 388.863 357.201C388.558 357.939 388.11 358.609 387.546 359.174C386.981 359.738 386.311 360.186 385.573 360.491C384.835 360.796 384.044 360.952 383.246 360.951H395.418C398.769 360.951 401.495 358.242 401.495 354.874C401.495 335.163 397.628 316.04 390.017 298.041ZM376.545 203.626C360.469 187.542 339.083 178.684 316.324 178.684C315.309 178.684 314.301 178.707 313.295 178.742C334.895 179.495 355.104 188.259 370.467 203.626C386.551 219.714 395.417 241.1 395.417 263.841C395.417 264.642 395.26 265.434 394.954 266.174C394.648 266.914 394.199 267.586 393.633 268.152C393.067 268.718 392.395 269.166 391.655 269.473C390.915 269.779 390.123 269.936 389.322 269.936H395.417C398.768 269.936 401.494 267.21 401.494 263.841C401.495 241.1 392.637 219.714 376.545 203.626Z" fill="white"/>
<defs>
<filter id="filter0_d_1_63" x="39" y="44.5" width="434" height="434" filterUnits="userSpaceOnUse" color-interpolation-filters="sRGB">
<feFlood flood-opacity="0" result="BackgroundImageFix"/>
<feColorMatrix in="SourceAlpha" type="matrix" values="0 0 0 0 0 0 0 0 0 0 0 0 0 0 0 0 0 0 127 0" result="hardAlpha"/>
<feOffset dy="5.5"/>
<feGaussianBlur stdDeviation="5.5"/>
<feColorMatrix type="matrix" values="0 0 0 0 0 0 0 0 0 0 0 0 0 0 0 0 0 0 0.28 0"/>
<feBlend mode="normal" in2="BackgroundImageFix" result="effect1_dropShadow_1_63"/>
<feBlend mode="normal" in="SourceGraphic" in2="effect1_dropShadow_1_63" result="shape"/>
</filter>
</defs>
</svg>
